<svg id="logo" xmlns="http://www.w3.org/2000/svg" viewBox="0 0 356.844 357.26">
  <title>logo</title>
  <g id="arrows">
    <path id="arrow_bottom_left" d="M85.122,321.16l-28.8,29.646c-1.759-7.018-3.111-11.914-5.265-23.052A154.925,154.925,0,0,1,30.8,380.5l2,2a114.848,114.848,0,0,1,47.009-18.533c.585-.061,3.506-.483,3.506-.483L61.969,357c9.341-9.582,19.154-19.572,28.674-29.28l.309.168C89.934,325.039,87.094,323.99,85.122,321.16Z" transform="translate(-30.802 -25.244)"/>
    <path id="arrow_bottom_right" d="M369.113,332.485c-.061-.584-.482-3.506-.482-3.506l-6.485,21.349c-10.236-9.98-20.93-20.489-31.257-30.612v-.557a23.192,23.192,0,0,1-6.522,6.585h.464l31.117,30.235c-7.018,1.759-11.914,3.112-23.052,5.265a154.938,154.938,0,0,1,52.75,20.25l2-2A114.857,114.857,0,0,1,369.113,332.485Z" transform="translate(-30.802 -25.244)"/>
    <path id="arrow_top_right" d="M383.9,25.244a114.835,114.835,0,0,1-47.009,18.533c-.585.061-3.507.483-3.507.483l21.349,6.484c-9.347,9.588-19.164,19.582-28.689,29.3,1.906,1.893,4.667,3.8,5.785,6.556v-.264l28.556-29.39c1.759,7.019,3.111,11.915,5.265,23.052a154.925,154.925,0,0,1,20.25-52.75Q384.9,26.245,383.9,25.244Z" transform="translate(-30.802 -25.244)"/>
    <path id="arrow_top_left" d="M62.712,50.76c7.019-1.76,11.915-3.112,23.052-5.266a154.9,154.9,0,0,1-52.75-20.25q-1,1-2,2A114.84,114.84,0,0,1,49.547,74.253c.061.585.483,3.507.483,3.507l6.484-21.349c9.04,8.813,18.438,18.041,27.625,27.051v.4A43.221,43.221,0,0,1,90.853,78.1Z" transform="translate(-30.802 -25.244)"/>
  </g>
  <g id="circle">
    <path id="circle_bottom_left" d="M63.426,218.608H54.177a147.944,147.944,0,0,0,31,77.077V321.1l-.059.061c1.972,2.83,4.812,3.879,5.83,6.732l.646.352h28.1c22.587,15.656,48.175,24.671,72.087,25.491v-8.523C119.627,332.076,76.918,290.126,63.426,218.608Z" transform="translate(-30.802 -25.244)"/>
    <path id="circle_bottom_right" d="M330.889,319.159V291.618c16.307-22.313,26.329-48.326,27.651-74.124h-8.851c-12.44,69.48-52.871,111.476-121.484,126.648v9.182a144.485,144.485,0,0,0,68.7-27.58h27.461A23.192,23.192,0,0,0,330.889,319.159Z" transform="translate(-30.802 -25.244)"/>
    <path id="circle_top_right" d="M326.042,80.04l-.2.2H300.19a149.01,149.01,0,0,0-73.882-30.488v9.377c67.661,13.916,108.307,54.388,122.73,121.86h9.289a147.349,147.349,0,0,0-26.5-67.773V86.6C330.709,83.843,327.948,81.933,326.042,80.04Z" transform="translate(-30.802 -25.244)"/>
    <path id="circle_top_left" d="M114.97,78.6l-.456-.483-23.532.108-.129-.125a43.221,43.221,0,0,0-6.714,5.759v25.372c-16.2,21.3-26.793,46.528-29.408,72.785H64.5c4.946-32.46,18.75-59.96,41.847-82.626,23.219-22.787,51.267-35.831,83.392-40.143V49.518C162.063,51.908,136.378,62.549,114.97,78.6Z" transform="translate(-30.802 -25.244)"/>
  </g>
  <g id="psi">
    <path id="right_death" d="M246.717,209.978c0,16.295.13,32.592-.078,48.884-.063,4.988-3.4,7.277-8.015,8.8a26.065,26.065,0,0,1-6.083,1.135v1.662c13.983,0,28.553-.007,42.536-.007V269.2c-1.327-.375-2.351-.581-3.451-.905-7.591-2.234-10.862-4.408-11.01-12.8-.252-14.316-.188-28.639-.047-42.957.006-.563.055-2.99.055-2.99s1.515.024,2.6.033c8.731.072,17.073,6.155,18.944,14.712a103.975,103.975,0,0,1,1.627,11.318c.717,6.774.768,13.661,2.031,20.324,2.173,11.472,9.253,16.855,20.191,16.316v-3c-5.3-1.383-6.766-3.488-7.068-10.273-.355-7.984-.487-15.984-1.053-23.953-1.168-16.46-8.589-25.743-24.271-30.17-4.072-1.15-8.428-1.3-12.67-1.907,0-12.489-.276-24.777.106-37.045.218-7.011,3.449-9.64,10.78-10.71.919-.134,3.255-.207,3.255-.207l-.016-2.907s-2.6.075-3.37.068c-12-.111-23.991-.066-35.987-.013-1.036,0-2.106-.055-3.174-.055,0,.837-.018,2.536,0,2.948a21.191,21.191,0,0,1,3.206.151c7.613,1.024,10.708,3.883,11.146,11.52.389,6.8.16,13.644.183,20.469.018,5.271,0,10.542,0,15.8-3.792.457-6.914.835-10.036,1.209-13.525,1.618-24,10.819-26.127,24.329-1.49,9.477-1.517,19.182-2.24,28.783-.362,4.8-.275,9.832-5.993,12.067a3.263,3.263,0,0,1-.666.053s0,1.85,0,2.479C212.428,273,220,266.788,221.9,255.1c1.195-7.361,1.58-14.864,2.139-22.317C225.229,216.929,232.4,209.663,246.717,209.978Z" transform="translate(-30.802 -25.244)"/>
    <path id="left_birth" d="M186.8,188.714a103.993,103.993,0,0,1-1.627,11.319c-1.871,8.557-10.213,14.639-18.944,14.712-1.082.009-2.6.032-2.6.032s-.049-2.426-.055-2.989c-.141-14.318-.2-28.641.047-42.957.148-8.395,3.419-10.569,11.01-12.8,1.1-.324,2.124-.53,3.451-.9v-1.26c-13.983,0-28.553-.007-42.536-.007v1.663a26.012,26.012,0,0,1,6.083,1.134c4.615,1.528,7.952,3.816,8.015,8.805.208,16.292.078,32.588.078,48.883-14.317.316-21.488-6.95-22.677-22.808-.559-7.453-.944-14.955-2.139-22.316-1.9-11.685-9.473-17.9-19.887-16.774,0,.628,0,2.479,0,2.479a3.246,3.246,0,0,1,.666.052c5.718,2.236,5.631,7.266,5.993,12.068.723,9.6.75,19.305,2.24,28.782,2.124,13.51,12.6,22.711,26.127,24.33,3.122.373,6.244.752,10.036,1.208,0,5.255.014,10.526,0,15.8-.023,6.824.206,13.664-.184,20.469-.437,7.636-3.532,10.5-11.145,11.519a21.317,21.317,0,0,1-3.206.152c-.013.411,0,2.11,0,2.948,1.068,0,2.138-.06,3.174-.055,12,.052,23.992.1,35.987-.013.77-.007,3.37.068,3.37.068l.015-2.907s-2.335-.073-3.254-.207c-7.331-1.071-10.562-3.7-10.78-10.71-.382-12.268-.106-24.557-.106-37.046,4.242-.61,8.6-.757,12.67-1.906,15.682-4.428,23.1-13.71,24.271-30.17.566-7.97.7-15.969,1.053-23.954.3-6.784,1.769-8.889,7.068-10.273v-3c-10.938-.538-18.018,4.845-20.191,16.316C187.568,175.053,187.517,181.94,186.8,188.714Z" transform="translate(-30.802 -25.244)"/>
  </g>
  <g id="letters">
    <path id="k" d="M202.138,55.49a71.422,71.422,0,0,0,5.915,7.339,4.978,4.978,0,0,0,3.4,1.661q2.091,0,5.59-3.269l.246-1.248q-2.286,2.127-3.815,2.127-2.407,0-7.4-6.926a14.268,14.268,0,0,0,6.908-2.76,6.27,6.27,0,0,0,2.426-5.009q0-2.867-2.971-2.866a8.449,8.449,0,0,0-5.387,2.242,16.212,16.212,0,0,0-4.351,5.862h-.211l1.74-7.682q1-4.411,1.5-5.818a6.558,6.558,0,0,1,1.38-2.338,5.068,5.068,0,0,1,3.85-1.6,8.835,8.835,0,0,1,3.515.932l2.408-2.514a12.606,12.606,0,0,0-3.164-.369,11.559,11.559,0,0,0-8.534,3.542,18.949,18.949,0,0,0-4.772,9.905l-2.408,12.147-1.3,5.414,3.726-.211Zm.194-.984q5.291-8.226,8.262-8.226,1.371,0,1.371,1.722a5.809,5.809,0,0,1-2.69,4.729,10.381,10.381,0,0,1-6.381,2h-.6Z" transform="translate(-30.802 -25.244)"/>
    <g id="i_right">
      <polygon id="dot" points="336.232 157.584 331.275 160.819 330.097 163.209 334.72 160.819 336.232 157.584"/>
      <path id="body" d="M358,205.856a17.425,17.425,0,0,0-.405,2.953q0,2.655,2.532,2.655,3.059,0,6.908-4.131l.316-1.635q-3.5,3.867-5.238,3.867-1.038,0-1.037-1.142a18.336,18.336,0,0,1,.4-2.6l1.723-8.684,1.336-5.625-8.6,2.813-.211,1.072a12.163,12.163,0,0,1,2.83-.6q1.142,0,1.143,1.476a23.764,23.764,0,0,1-.492,3.463Z" transform="translate(-30.802 -25.244)"/>
    </g>
    <path id="p" d="M214.725,348.675q-2.443,0-5.23,2.769a23.912,23.912,0,0,0-4.79,7.2h-.3l.862-4.289,1.336-5.678-8.578,2.813-.229,1.072a11.827,11.827,0,0,1,2.848-.615q1.125,0,1.125,1.476a24.406,24.406,0,0,1-.475,3.466l-2.707,13.632q-1.476,7.423-5.959,7.424a8.38,8.38,0,0,1-3.726-.879l-2.373,2.513a12.971,12.971,0,0,0,11.17-2.7,16.411,16.411,0,0,0,4.808-8.692c.27.035.469.057.6.07q1.512.192,2,.193,4.8,0,9.079-4.851a15.348,15.348,0,0,0,4.28-10.283Q218.469,348.675,214.725,348.675Zm-2.233,13.957q-1.915,4.042-5.1,4.043a10.829,10.829,0,0,1-4.4-.967l.791-3.99a36.924,36.924,0,0,1,5.01-7.269q2.831-3.173,4.324-3.172,1.635,0,1.635,2.759A20.4,20.4,0,0,1,212.492,362.632Z" transform="translate(-30.802 -25.244)"/>
    <g id="i_left">
      <polygon id="dot-2" data-name="dot" points="23.242 161.51 18.285 164.667 17.107 167 21.73 164.667 23.242 161.51"/>
      <path id="body-2" data-name="body" d="M45.009,209.233a16.716,16.716,0,0,0-.405,2.882,2.265,2.265,0,0,0,2.531,2.592q3.06,0,6.909-4.033l.316-1.6q-3.5,3.775-5.238,3.775-1.038,0-1.037-1.115a17.511,17.511,0,0,1,.4-2.54l1.723-8.476,1.336-5.491-8.6,2.745-.211,1.047a12.4,12.4,0,0,1,2.83-.583q1.143,0,1.143,1.441a22.423,22.423,0,0,1-.493,3.38Z" transform="translate(-30.802 -25.244)"/>
    </g>
  </g>
</svg>
